<?xml version="1.0" standalone="no"?>
<!DOCTYPE svg PUBLIC "-//W3C//DTD SVG 20010904//EN"
 "http://www.w3.org/TR/2001/REC-SVG-20010904/DTD/svg10.dtd">
<svg version="1.0" xmlns="http://www.w3.org/2000/svg"
 width="444.000000pt" height="552.000000pt" viewBox="0 0 444.000000 552.000000"
 preserveAspectRatio="xMidYMid meet">

<g transform="translate(0.000000,552.000000) scale(0.100000,-0.100000)"
fill="#bf0000" stroke="none">
<path d="M1143 5426 c-237 -45 -480 -171 -693 -358 -275 -243 -423 -674 -390
-1136 25 -350 144 -750 325 -1089 167 -314 682 -867 1215 -1304 125 -103 401
-310 523 -393 l88 -60 32 18 c157 90 498 335 687 494 412 345 817 798 1086
1212 228 352 384 920 359 1310 -20 305 -95 543 -242 763 -182 275 -451 452
-793 524 -131 28 -452 24 -575 -6 -209 -51 -362 -128 -492 -245 l-53 -48 -62
54 c-149 129 -296 200 -513 249 -117 27 -396 35 -502 15z m164 -468 c102 -37
195 -128 230 -222 8 -22 19 -77 24 -121 5 -45 17 -97 29 -120 11 -21 20 -49
20 -61 0 -26 -36 -74 -56 -74 -8 0 -51 -38 -96 -84 -55 -55 -101 -91 -135
-107 -55 -25 -67 -43 -33 -52 12 -3 20 -14 20 -25 0 -19 40 -58 155 -155 27
-23 29 -27 16 -50 -13 -25 -11 -30 60 -113 41 -48 92 -108 115 -132 l40 -45
107 146 c97 133 106 149 97 172 -6 15 -8 30 -5 34 2 5 48 34 102 66 125 74
133 81 133 121 0 30 -5 36 -47 58 -69 34 -166 108 -198 150 -25 33 -31 35 -88
38 l-62 3 -3 66 c-4 82 20 196 54 266 62 129 202 227 365 258 171 32 363 -44
453 -180 59 -88 78 -153 83 -287 l5 -118 -58 0 c-51 0 -61 -3 -73 -22 -51 -81
-151 -167 -213 -182 -26 -6 -28 -10 -28 -54 l0 -48 103 -65 c98 -63 102 -67
102 -101 0 -30 16 -54 115 -172 63 -75 117 -136 121 -136 3 0 48 64 98 142 70
107 91 147 87 164 -5 19 7 34 74 90 66 56 78 70 70 85 -15 26 -13 28 27 31 63
5 53 29 -29 69 -40 20 -95 57 -123 81 -27 25 -67 51 -87 57 -74 24 -93 83 -50
151 9 14 15 37 14 53 -4 49 18 161 42 212 50 108 149 184 291 222 86 24 131
17 232 -32 136 -67 203 -172 219 -345 5 -54 13 -84 30 -110 34 -49 32 -92 -6
-123 -16 -14 -43 -28 -59 -32 -15 -3 -39 -18 -52 -32 -36 -38 -139 -109 -181
-124 -51 -18 -50 -39 2 -39 41 0 47 -8 30 -39 -8 -15 3 -28 65 -77 62 -48 74
-63 71 -83 -3 -19 11 -37 66 -90 79 -74 137 -153 170 -233 18 -43 22 -73 22
-153 0 -104 -9 -136 -44 -155 -15 -8 -25 -5 -48 15 -17 14 -34 25 -39 25 -6 0
-18 8 -27 19 -13 15 -16 35 -15 93 3 90 -21 150 -84 204 l-42 35 -3 -29 c-2
-17 -12 -38 -23 -48 -17 -15 -17 -19 -4 -34 9 -10 34 -136 69 -358 l54 -342
46 -52 c25 -29 46 -56 46 -60 0 -5 -83 -8 -184 -8 l-184 0 -28 71 c-15 38 -30
72 -34 74 -4 2 -16 -27 -29 -66 l-22 -69 -195 0 c-107 0 -194 2 -194 5 0 3 18
30 41 60 l41 55 61 332 c47 263 64 338 80 355 18 20 18 23 3 29 -9 3 -22 18
-30 31 -12 25 -14 23 -71 -76 -37 -66 -59 -117 -62 -144 -6 -56 -32 -91 -70
-95 -42 -4 -84 33 -92 81 -5 28 -33 67 -126 172 l-120 135 -12 -41 c-7 -23
-20 -47 -29 -53 -15 -11 -4 -30 95 -162 61 -82 111 -152 111 -156 0 -5 -47 -8
-105 -8 -58 0 -105 -2 -105 -5 0 -3 43 -108 95 -233 67 -158 105 -237 127
-259 l32 -33 -161 0 -160 0 -59 125 c-68 145 -57 146 -140 -17 l-54 -108 -175
0 c-96 0 -175 4 -175 8 0 5 17 21 37 35 30 22 58 67 151 244 63 120 116 223
119 230 4 9 -22 13 -97 15 l-101 3 97 153 c90 143 95 154 80 171 -9 10 -16 30
-16 44 0 15 -4 27 -9 27 -5 0 -57 -57 -115 -127 -88 -106 -106 -133 -106 -161
0 -77 -94 -111 -144 -51 -14 17 -26 39 -26 50 0 16 -67 106 -178 239 -11 13
-12 8 -7 -27 6 -36 4 -42 -14 -48 -27 -8 -27 -35 -1 -35 11 0 20 -1 20 -2 0
-2 18 -148 40 -326 l39 -323 46 -52 c25 -28 45 -55 45 -59 0 -5 -81 -8 -179
-8 l-180 0 -20 55 c-12 31 -21 60 -21 66 0 27 -19 -7 -34 -61 l-17 -60 -185 0
c-101 0 -184 3 -184 6 0 3 20 30 45 59 l46 53 34 303 c19 166 35 310 35 321 0
10 7 18 15 18 8 0 15 9 15 20 0 11 -5 20 -11 20 -8 0 -10 16 -5 53 l6 52 -35
-40 c-19 -22 -46 -64 -61 -94 -25 -49 -27 -57 -16 -97 7 -24 12 -53 12 -64 0
-28 -37 -62 -59 -55 -12 3 -22 -3 -31 -19 -22 -42 -42 -41 -79 1 l-33 38 5 90
c8 144 60 279 149 386 30 38 37 52 32 75 -5 27 2 34 90 102 52 41 98 82 101
93 4 10 15 19 26 19 13 0 19 7 19 23 -1 16 -17 32 -66 62 -36 22 -89 65 -117
95 -36 38 -65 59 -94 68 -47 14 -83 53 -83 89 0 33 28 91 50 103 13 7 19 26
22 74 10 125 92 252 200 311 61 34 189 65 233 57 17 -3 54 -14 82 -24z m-307
-2278 l0 -40 -60 0 c-53 0 -60 -2 -60 -20 0 -17 7 -20 50 -20 l50 0 0 -35 0
-35 -50 0 -50 0 0 -55 0 -55 -45 0 -45 0 0 150 0 150 105 0 105 0 0 -40z m265
0 l0 -35 -67 -3 c-52 -2 -68 -6 -68 -17 0 -12 15 -15 65 -15 l65 0 0 -35 0
-35 -65 0 c-63 0 -65 -1 -65 -25 0 -24 2 -25 70 -25 l70 0 0 -35 0 -35 -120 0
-120 0 0 143 c0 79 3 147 7 151 4 3 57 5 117 4 l111 -3 0 -35z m253 9 c36 -66
37 -66 63 -18 23 41 27 44 72 47 26 2 47 -1 47 -7 0 -5 -22 -46 -50 -90 -46
-73 -50 -86 -50 -141 l0 -60 -45 0 -45 0 0 58 c0 53 -5 66 -55 146 -30 48 -55
89 -55 92 0 2 23 4 50 4 46 0 52 -3 68 -31z m547 -106 c26 -76 50 -144 52
-150 4 -9 -9 -13 -45 -13 -41 0 -51 3 -55 20 -4 16 -14 20 -50 20 -36 0 -46
-4 -50 -20 -4 -16 -14 -20 -51 -20 -25 0 -46 2 -46 4 0 3 58 173 90 264 11 30
15 32 60 32 l47 0 48 -137z m165 27 l0 -110 65 0 65 0 0 -40 0 -40 -110 0
-110 0 0 150 0 150 45 0 45 0 0 -110z m385 70 l0 -35 -67 -3 c-52 -2 -68 -6
-68 -17 0 -12 15 -15 65 -15 l65 0 0 -35 0 -35 -65 0 c-63 0 -65 -1 -65 -25 0
-24 2 -25 70 -25 l70 0 0 -35 0 -35 -120 0 -120 0 0 143 c0 79 3 147 7 151 4
3 57 5 117 4 l111 -3 0 -35z m276 11 c37 -37 37 -59 2 -67 -16 -3 -33 -7 -40
-9 -6 -2 -19 5 -29 16 -22 24 -39 24 -64 -1 -14 -14 -20 -33 -20 -63 0 -58 17
-79 60 -75 40 4 54 28 16 28 -23 0 -26 4 -26 35 l0 35 70 0 71 0 -3 -67 -3
-68 -45 -22 c-81 -41 -175 -22 -213 44 -24 42 -25 128 -3 171 25 49 70 72 139
72 51 0 62 -4 88 -29z m305 -4 c31 -36 30 -78 -1 -115 -16 -19 -22 -33 -15
-37 10 -6 60 -98 60 -110 0 -3 -24 -5 -53 -5 l-53 0 -27 55 c-15 30 -31 55
-37 55 -5 0 -10 -25 -10 -55 l0 -55 -45 0 -45 0 0 151 0 151 101 -4 c96 -4
103 -5 125 -31z m154 -117 l0 -150 -45 0 -45 0 0 150 0 150 45 0 45 0 0 -150z
m225 140 c3 -5 28 -73 55 -150 l50 -140 -50 0 c-40 0 -50 4 -55 20 -5 16 -15
20 -50 20 -34 0 -44 -4 -48 -20 -4 -16 -14 -20 -51 -20 -25 0 -46 4 -46 9 0 8
49 152 95 279 5 14 91 17 100 2z"/>
<path d="M1956 2578 c-9 -35 -8 -38 15 -38 16 0 19 4 14 23 -11 35 -22 41 -29
15z"/>
<path d="M3060 2625 c0 -21 5 -25 29 -25 31 0 46 21 28 39 -6 6 -21 11 -34 11
-18 0 -23 -6 -23 -25z"/>
<path d="M3516 2582 c-9 -37 -5 -45 17 -40 12 2 12 9 2 38 l-12 35 -7 -33z"/>
<path d="M795 776 c-102 -48 -154 -135 -162 -270 -10 -148 40 -268 134 -322
66 -39 178 -45 251 -14 77 33 151 130 152 198 0 19 -5 22 -38 22 -36 0 -38 -2
-55 -49 -32 -90 -104 -131 -204 -116 -62 9 -125 69 -143 135 -16 56 -15 178 1
228 36 113 157 172 263 128 32 -13 76 -62 89 -98 5 -13 17 -18 47 -18 38 0 41
2 35 23 -25 81 -84 144 -154 165 -66 20 -160 15 -216 -12z"/>
<path d="M3290 791 c-127 -39 -203 -159 -202 -321 0 -152 66 -266 177 -303 74
-26 188 -22 250 7 115 53 182 183 173 334 -11 187 -121 293 -301 291 -40 0
-83 -4 -97 -8z m163 -72 c52 -14 112 -71 133 -124 12 -34 15 -66 12 -133 -3
-76 -8 -96 -35 -142 -39 -70 -92 -100 -172 -100 -146 1 -232 112 -218 281 14
165 135 259 280 218z"/>
<path d="M90 475 l0 -315 225 0 225 0 0 40 0 40 -185 0 -185 0 0 105 0 105
170 0 170 0 0 35 0 35 -170 0 -170 0 0 95 0 95 186 0 185 0 -3 38 -3 37 -222
3 -223 2 0 -315z"/>
<path d="M1290 580 c0 -232 8 -291 50 -348 37 -52 89 -75 177 -80 119 -7 198
32 237 117 19 42 21 66 24 284 l4 237 -41 0 -41 0 0 -202 c-1 -218 -9 -280
-43 -317 -50 -54 -149 -68 -207 -28 -70 46 -75 66 -78 320 l-4 227 -39 0 -39
0 0 -210z"/>
<path d="M2093 778 c-7 -10 -174 -449 -231 -606 -3 -10 6 -12 38 -10 47 3 39
-7 94 141 l18 47 122 0 123 0 32 -95 33 -95 44 0 c24 0 44 2 44 4 0 9 -211
589 -221 607 -11 22 -81 27 -96 7z m91 -222 c25 -71 46 -130 46 -132 0 -2 -43
-4 -96 -4 -73 0 -95 3 -92 13 45 128 92 256 94 254 2 -1 23 -60 48 -131z"/>
<path d="M2495 779 c-3 -8 -4 -149 -3 -314 l3 -300 118 -3 c218 -5 286 23 347
142 34 66 35 73 35 175 0 116 -15 164 -69 228 -51 61 -101 76 -272 81 -125 4
-155 2 -159 -9z m325 -87 c24 -13 44 -36 63 -73 27 -51 28 -60 25 -154 -3 -83
-8 -107 -28 -143 -38 -67 -73 -83 -195 -90 l-105 -5 0 242 0 241 103 0 c79 0
110 -4 137 -18z"/>
<path d="M3808 784 c-5 -4 -8 -146 -8 -316 l0 -309 43 3 42 3 3 133 3 132 114
0 c170 0 179 -8 189 -164 4 -48 9 -92 12 -97 7 -11 104 -12 104 -1 0 4 -5 13
-12 20 -7 7 -18 63 -24 124 -11 105 -14 114 -40 135 l-29 24 21 17 c39 33 55
69 55 124 0 85 -28 131 -96 159 -34 13 -366 25 -377 13z m363 -103 c21 -21 29
-39 29 -65 0 -94 -38 -116 -200 -116 l-110 0 0 105 0 105 126 0 c125 0 126 0
155 -29z"/>
</g>
</svg>
