<?xml version="1.0" standalone="no"?>
<!DOCTYPE svg PUBLIC "-//W3C//DTD SVG 20010904//EN"
 "http://www.w3.org/TR/2001/REC-SVG-20010904/DTD/svg10.dtd">
<svg version="1.0" xmlns="http://www.w3.org/2000/svg"
 width="415.000000pt" height="415.000000pt" viewBox="0 0 415.000000 415.000000"
 preserveAspectRatio="xMidYMid meet">

<g transform="translate(0.000000,415.000000) scale(0.100000,-0.100000)"
fill="#000000" stroke="none">
<path d="M1832 3536 c-52 -13 -103 -28 -115 -34 -12 -5 -52 -22 -88 -36 -97
-40 -212 -119 -310 -216 -136 -133 -233 -302 -285 -495 -23 -87 -27 -120 -28
-255 -1 -119 3 -174 18 -235 37 -161 111 -314 213 -447 60 -77 234 -228 262
-228 6 0 11 -4 11 -8 0 -11 126 -74 210 -105 192 -72 490 -75 694 -7 85 28
219 97 289 148 59 44 227 207 227 221 0 4 11 21 25 37 61 70 151 280 176 409
20 103 18 332 -4 429 -25 114 -88 265 -153 364 -62 95 -230 270 -282 293 -18
8 -32 17 -32 20 0 15 -214 111 -300 135 -81 23 -119 27 -265 30 -153 3 -179 1
-263 -20z"/>
<path d="M1080 1322 c-129 -65 -218 -130 -324 -235 -109 -109 -162 -175 -243
-302 -59 -94 -127 -225 -116 -225 5 0 3 -4 -3 -8 -35 -24 -164 -442 -164 -533
0 -19 27 -19 1836 -19 l1837 0 -7 53 c-10 78 -52 235 -90 340 -156 430 -428
765 -750 923 l-89 44 -31 -25 c-80 -65 -277 -169 -396 -209 -302 -101 -633
-100 -939 4 -70 23 -293 131 -311 150 -18 20 -110 80 -121 80 -8 0 -48 -17
-89 -38z"/>
</g>
</svg>
